HIERARCHY
ROOT hip
{
  OFFSET 0 0 0
  CHANNELS 6 Xposition Yposition Zposition Zrotation Yrotation Xrotation
  JOINT abdomen
  {
    OFFSET 0 20.6881 -0.73152
    CHANNELS 3 Zrotation Xrotation Yrotation
    JOINT chest
    {
      OFFSET 0 11.7043 -0.48768
      CHANNELS 3 Zrotation Xrotation Yrotation
      JOINT neck
      {
        OFFSET 0 22.1894 -2.19456
        CHANNELS 3 Zrotation Xrotation Yrotation
        JOINT head
        {
          OFFSET -0.24384 7.07133 1.2192
          CHANNELS 3 Zrotation Xrotation Yrotation
          JOINT leftEye
          {
            OFFSET 4.14528 8.04674 8.04672
            CHANNELS 3 Zrotation Xrotation Yrotation
            End Site
            {
              OFFSET 1 0 0
            }
          }
          JOINT rightEye
          {
            OFFSET -3.6576 8.04674 8.04672
            CHANNELS 3 Zrotation Xrotation Yrotation
            End Site
            {
              OFFSET 1 0 0
            }
          }
        }
      }
      JOINT rCollar
      {
        OFFSET -2.68224 19.2634 -4.8768
        CHANNELS 3 Zrotation Xrotation Yrotation
        JOINT rShldr
        {
          OFFSET -8.77824 -1.95073 1.46304
          CHANNELS 3 Zrotation Xrotation Yrotation
          JOINT rForeArm
          {
            OFFSET -28.1742 -1.7115 0.48768
            CHANNELS 3 Zrotation Xrotation Yrotation
            JOINT rHand
            {
              OFFSET -22.5879 0.773209 7.07136
              CHANNELS 3 Zrotation Xrotation Yrotation
              JOINT rThumb1
              {
                OFFSET -1.2192 -0.487915 3.41376
                CHANNELS 3 Zrotation Xrotation Yrotation
                JOINT rThumb2
                {
                  OFFSET -3.37035 -0.52449 3.41376
                  CHANNELS 3 Zrotation Xrotation Yrotation
                  End Site
                  {
                    OFFSET -1.78271 -1.18214 1.43049
                  }
                }
              }
              JOINT rIndex1
              {
                OFFSET -7.75947 0.938293 5.60832
                CHANNELS 3 Zrotation Xrotation Yrotation
                JOINT rIndex2
                {
                  OFFSET -2.54057 -0.884171 1.56538
                  CHANNELS 3 Zrotation Xrotation Yrotation
                  End Site
                  {
                    OFFSET -1.62519 -0.234802 1.16502
                  }
                }
              }
              JOINT rMid1
              {
                OFFSET -8.24714 1.18213 3.41376
                CHANNELS 3 Zrotation Xrotation Yrotation
                JOINT rMid2
                {
                  OFFSET -3.10165 -0.590103 1.0647
                  CHANNELS 3 Zrotation Xrotation Yrotation
                  End Site
                  {
                    OFFSET -2.48547 -0.328903 0.83742
                  }
                }
              }
              JOINT rRing1
              {
                OFFSET -8.82822 0.546677 1.51678
                CHANNELS 3 Zrotation Xrotation Yrotation
                JOINT rRing2
                {
                  OFFSET -2.60934 -0.819778 -0.0198488
                  CHANNELS 3 Zrotation Xrotation Yrotation
                  End Site
                  {
                    OFFSET -2.33842 -0.294052 0.168128
                  }
                }
              }
              JOINT rPinky1
              {
                OFFSET -8.27202 -0.0477905 -0.4584
                CHANNELS 3 Zrotation Xrotation Yrotation
                JOINT rPinky2
                {
                  OFFSET -1.82734 -0.647385 -0.700984
                  CHANNELS 3 Zrotation Xrotation Yrotation
                  End Site
                  {
                    OFFSET -1.69225 -0.51767 -0.607171
                  }
                }
              }
            }
          }
        }
      }
      JOINT lCollar
      {
        OFFSET 2.68224 19.2634 -4.8768
        CHANNELS 3 Zrotation Xrotation Yrotation
        JOINT lShldr
        {
          OFFSET 8.77824 -1.95073 1.46304
          CHANNELS 3 Zrotation Xrotation Yrotation
          JOINT lForeArm
          {
            OFFSET 28.1742 -1.7115 0.48768
            CHANNELS 3 Zrotation Xrotation Yrotation
            JOINT lHand
            {
              OFFSET 22.5879 0.773209 7.07136
              CHANNELS 3 Zrotation Xrotation Yrotation
              JOINT lThumb1
              {
                OFFSET 1.2192 -0.487915 3.41376
                CHANNELS 3 Zrotation Xrotation Yrotation
                JOINT lThumb2
                {
                  OFFSET 3.37035 -0.52449 3.41376
                  CHANNELS 3 Zrotation Xrotation Yrotation
                  End Site
                  {
                    OFFSET 1.78271 -1.18214 1.43049
                  }
                }
              }
              JOINT lIndex1
              {
                OFFSET 7.75947 0.938293 5.60832
                CHANNELS 3 Zrotation Xrotation Yrotation
                JOINT lIndex2
                {
                  OFFSET 2.54057 -0.884171 1.56538
                  CHANNELS 3 Zrotation Xrotation Yrotation
                  End Site
                  {
                    OFFSET 1.62519 -0.234802 1.16502
                  }
                }
              }
              JOINT lMid1
              {
                OFFSET 8.24714 1.18213 3.41376
                CHANNELS 3 Zrotation Xrotation Yrotation
                JOINT lMid2
                {
                  OFFSET 3.10165 -0.590103 1.0647
                  CHANNELS 3 Zrotation Xrotation Yrotation
                  End Site
                  {
                    OFFSET 2.48547 -0.328903 0.83742
                  }
                }
              }
              JOINT lRing1
              {
                OFFSET 8.82822 0.546677 1.51678
                CHANNELS 3 Zrotation Xrotation Yrotation
                JOINT lRing2
                {
                  OFFSET 2.60934 -0.819778 -0.0198488
                  CHANNELS 3 Zrotation Xrotation Yrotation
                  End Site
                  {
                    OFFSET 2.33842 -0.294052 0.168128
                  }
                }
              }
              JOINT lPinky1
              {
                OFFSET 8.27202 -0.0477905 -0.4584
                CHANNELS 3 Zrotation Xrotation Yrotation
                JOINT lPinky2
                {
                  OFFSET 1.82734 -0.647385 -0.700984
                  CHANNELS 3 Zrotation Xrotation Yrotation
                  End Site
                  {
                    OFFSET 1.69225 -0.51767 -0.607171
                  }
                }
              }
            }
          }
        }
      }
    }
  }
  JOINT rButtock
  {
    OFFSET -8.77824 4.35084 1.2192
    CHANNELS 3 Zrotation Xrotation Yrotation
    JOINT rThigh
    {
      OFFSET 0 -1.70687 -2.19456
      CHANNELS 3 Zrotation Xrotation Yrotation
      JOINT rShin
      {
        OFFSET 0 -36.8199 0.73152
        CHANNELS 3 Zrotation Xrotation Yrotation
        JOINT rFoot
        {
          OFFSET 0.73152 -45.1104 -5.12064
          CHANNELS 3 Zrotation Xrotation Yrotation
          End Site
          {
            OFFSET -1.1221 -3.69964 12.103
          }
        }
      }
    }
  }
  JOINT lButtock
  {
    OFFSET 8.77824 4.35084 1.2192
    CHANNELS 3 Zrotation Xrotation Yrotation
    JOINT lThigh
    {
      OFFSET 0 -1.70687 -2.19456
      CHANNELS 3 Zrotation Xrotation Yrotation
      JOINT lShin
      {
        OFFSET 0 -36.8199 0.73152
        CHANNELS 3 Zrotation Xrotation Yrotation
        JOINT lFoot
        {
          OFFSET -0.73152 -45.1104 -5.12064
          CHANNELS 3 Zrotation Xrotation Yrotation
          End Site
          {
            OFFSET 1.1221 -3.69964 12.103
          }
        }
      }
    }
  }
}
MOTION
Frames:	8
Frame Time:	0.00833333
-11.7494 75.187 -0.4921 -177.154008 -73.162177 179.56106 -3.39306 -5.676113 121.688976 -9.484402 5.754673 -123.548833 6.92931 18.385888 126.734646 -14.684328 34.260802 -158.288108 0.002486 0.0 0.002132 -0.004667 -0.0 0.001224 -155.613868 -4.236367 161.991193 15.410908 8.061634 4.15571 1.33499 -1.762422 -74.971214 157.140212 -37.023581 138.632182 -160.05164 2.213012 88.877654 -139.759925 3.422043 68.684942 -153.453069 -21.067468 121.74531 9.06333 5.285128 -9.074321 -160.937159 -7.488263 143.367683 -172.314893 -31.360863 143.65389 -145.119754 0.240458 -179.20358 -66.98887 87.68577 80.236797 12.632655 42.934063 10.532215 -154.944578 35.80332 -147.850137 159.221843 -48.725154 -170.566627 117.367372 37.921556 -120.07721 0.859902 14.311407 -27.42622 5.82961 33.572028 -2.784358 0.442622 0.434831 -0.069743 120.55205 -10.929668 -108.529457 173.387802 -52.451017 -119.981172 163.737508 -26.630969 -118.156042 -7.90445 -24.807574 3.012608 -29.309097 -60.230922 -6.440739 114.670061 66.731554 -135.092376 -6.164007 7.083954 4.843294 -4.765776 13.903234 -4.301921 146.509428 8.119007 142.779788 -179.993528 75.750634 -0.004428 154.043 20.79607 108.705381 63.583826 -25.891098 3.425692 173.482465 13.070268 128.044746 0.000293 -0.000993 -0.000377 14.927096 -18.729736 5.179047 -53.513269 49.581187 -90.907188 115.156516 0.281617 159.355692
-11.7247 75.0037 -0.5717 -177.414059 -73.447254 179.615108 -4.045678 -4.267888 99.580081 -11.824342 1.548365 -101.999693 -5.75453 4.494151 -7.934145 -4.13546 -17.694479 -27.531641 -0.005756 0.0 -0.000102 -0.000849 0.0 -0.003053 -82.877589 68.300086 86.000586 -169.162771 12.182871 175.838 27.853381 -61.843559 -50.551417 163.943986 -23.566961 143.55216 51.060646 -41.203818 12.855783 -109.34245 32.387151 82.968816 20.934488 -37.33205 -5.933197 -161.621504 -19.934568 111.535823 78.537485 -80.918999 49.688923 -164.058056 -6.519804 143.329593 -72.133378 72.974407 89.9898 5.865906 0.512724 -4.411031 -156.384889 53.734326 -150.115745 -10.111231 -23.302889 -11.734797 52.208342 -86.542698 73.916168 -170.879719 -5.559177 -147.692244 -13.336715 73.580608 69.785286 -158.134207 -32.893741 -140.650915 168.137324 -5.814656 -89.872722 121.45204 11.54646 -57.154458 -23.268312 -41.070592 5.68667 62.91978 50.447143 -51.48987 -0.048479 -0.138464 0.026474 -2.671591 1.651246 -0.198397 145.122543 1.975516 179.748661 73.006218 -78.010517 94.36156 141.699034 1.899735 138.683272 -9.070369 18.493505 -2.659126 0.001937 0.000136 0.0 -34.751916 -48.193105 -141.662538 -75.665438 -12.125305 -81.040912 -84.213568 51.352693 -159.753193 0.00037 0.001285 -0.000476 14.072111 -20.422799 118.149867 69.85459 6.256357 90.639571 -25.4454 29.634063 -152.943485
-11.6899 74.8202 -0.6628000000000001 -177.73786 -73.771033 179.764859 -0.813676 -1.355664 -30.976446 4.906463 -13.796723 29.358143 2.11793 22.906146 165.061472 6.028161 36.968633 156.108641 0.000457 -0.0 -0.001354 0.000457 -0.0 -0.001354 0.163214 -0.990091 -0.218038 -152.361314 44.610805 152.315825 -37.94608 8.509192 -43.120077 74.355435 -66.589741 62.090566 -68.48229 37.954243 35.659478 -121.310732 -18.781504 82.952861 -77.66719 43.029725 64.538631 94.610491 -65.452073 46.371088 -153.320113 13.628854 138.862419 3.159635 0.405001 0.399242 0.000701 0.022513 0.007807 -154.393295 11.21767 170.334079 -136.04011 -11.442083 -133.393353 -75.917906 -53.031136 -76.009165 158.416611 -29.366408 -166.793936 164.025556 -20.665245 -141.1491 -150.12121 8.544559 -135.123004 -174.602512 10.415738 -149.519866 -51.059842 -41.20373 -12.857188 53.496026 -85.256211 102.422321 19.170913 24.114078 -13.381889 2.486203 15.041211 -2.675818 171.058905 -38.900121 -145.272728 163.349618 -4.622289 -142.982179 -0.004158 1.771327 -0.556888 -3.172469 44.711968 -8.797559 134.695824 -14.104904 132.113021 -10.665233 22.667454 -3.569906 179.997748 75.748716 0.002324 154.544893 21.435354 9.371492 46.816756 64.679522 62.146208 90.974269 65.450091 168.925769 0.047796 -0.001884 0.035846 15.05749 -18.842284 5.254438 -36.131326 54.903158 118.812993 -148.223011 22.276181 29.646067
-11.6436 74.64030000000001 -0.7676999999999999 -178.107451 -74.132341 -179.991574 -0.9402 -1.169802 -38.794173 6.43307 -12.912887 37.15081 5.946116 8.223365 65.795144 -25.052813 7.651041 -99.147076 0.002041 0.0 0.002358 -0.000115 0.0 -0.001677 -152.129073 14.113034 157.556241 -160.302001 -14.237941 179.956121 -90.026205 40.84437 84.847132 21.904275 -41.210451 13.924052 4.531834 -4.51371 -0.520553 -25.877801 22.48859 20.427931 -16.729972 21.793164 11.470687 -13.567524 27.065047 8.793266 23.904403 -61.33373 1.399243 -36.937399 56.203001 31.200373 -145.098335 -1.520876 -178.649705 10.386799 0.370046 -8.950759 -80.939271 -51.226738 -79.359689 16.343573 41.544164 7.190843 152.128607 14.113326 -157.557156 -31.486688 20.632887 -19.859224 -3.876951 -5.081274 59.613755 -155.487892 -37.27946 -138.565995 -71.830931 -48.263852 -25.791877 30.431771 8.782191 6.726118 -45.282379 -63.865534 -4.304568 6.863321 31.331962 -6.744725 145.286566 29.524251 -132.692785 169.416968 -23.687211 -143.964358 0.020506 -1.725789 0.544178 55.387044 -86.719129 77.041953 -39.975749 85.64197 0.887998 161.989642 55.557791 148.288358 179.999793 75.749576 0.000142 154.62378 21.311538 0.0 -13.543282 74.40484 -70.742992 -75.729065 -76.818778 9.329464 179.999793 75.749576 0.000142 -156.925985 51.46198 151.426336 59.5939 -40.014198 133.74377 13.099296 38.593878 124.179668
-11.5875 74.4671 -0.8888999999999999 -178.504294 -74.532079 -179.66669 -0.578853 -3.403465 -106.674412 12.028692 -0.437187 104.339357 -12.476828 16.011726 -89.437658 26.824131 1.092423 53.564248 0.000586 -0.0 -0.001028 0.002699 0.0 0.003028 -151.972371 14.763691 157.370259 -161.003882 -3.429735 179.931322 102.122317 -43.28069 61.371824 -177.757555 30.685257 148.003419 -178.928434 -16.453308 89.421889 -16.936378 -45.790515 -1.064704 -43.648317 38.803581 34.060051 -89.265075 49.370232 66.244293 -167.374572 -28.008352 145.270415 86.491358 -77.989018 57.840278 -145.099451 -1.521115 -178.650182 -152.2466 -25.058086 -175.333683 8.142198 25.59992 7.179917 14.812273 44.068877 8.564793 -4.239102 -44.742737 8.648221 51.512191 62.877055 -33.874778 -161.129592 10.374716 -126.429875 -168.951908 -7.436151 -147.602302 121.36455 30.330728 -71.95927 149.092478 -18.192333 -74.369132 -2.324723 -3.867946 1.260723 -18.2078 -8.819406 1.41245 -1.281258 -3.802963 0.68175 34.383684 55.159178 -28.970422 0.014386 -1.3229 0.417526 156.228304 -46.650392 -177.612003 -19.449476 67.282445 -13.090193 26.840594 -41.751913 26.739541 179.993377 75.749065 0.004532 155.731484 20.589021 -70.261247 -80.968054 16.917737 -24.402859 171.356887 24.245943 -73.649669 0.002707 -0.001088 0.002707 16.070625 -21.2998 -141.583239 6.446136 -63.525018 108.773523 37.828071 -31.145303 101.931775
-11.5243 74.30369999999999 -1.0312999999999999 -178.880261 -74.967206 -179.306828 -1.512514 -4.041391 -131.147126 10.01462 4.305069 128.1415 -12.397332 16.255837 -90.806643 26.524327 1.968278 54.622781 -0.001308 0.0 -0.00395 0.000365 -0.0 -0.000924 -6.251529 26.219058 7.468718 -137.917372 62.612206 137.815723 85.776264 55.639466 -131.908924 177.099249 14.62275 148.371095 -103.199577 36.331773 60.111721 -10.776469 -17.144937 28.173214 -170.596978 -49.115921 121.026253 15.343702 -1.883893 -9.456602 4.180975 -12.845473 -1.968854 -175.249147 -39.360931 143.344306 -0.000464 -0.018714 -0.004639 8.452132 19.535351 2.740227 -126.800644 -26.620149 -124.512463 3.914916 2.232013 -1.010736 -3.445786 -62.740756 13.276016 -167.902593 1.649616 -157.383353 90.981899 -65.239826 77.760974 -4.37048 1.192166 -3.503061 103.199319 36.330297 -60.111109 -10.423652 -26.352421 -24.757062 27.609181 30.76523 -20.25662 -68.922462 -57.650227 -24.175314 160.572382 -6.35939 -143.198605 155.383535 16.652669 -139.23302 0.01585 -1.323048 0.416528 -9.343039 12.723196 -1.662915 -31.492117 83.083507 -6.668526 10.067239 -23.489868 10.997092 -179.981069 75.747873 -0.012952 155.66787 19.792428 -126.826824 -72.852512 -36.546042 70.75861 88.328954 -9.37372 9.790217 179.999725 75.749367 0.000141 -155.185599 51.033213 -142.755371 -57.914162 -55.880745 -84.871414 149.128307 30.20795 123.464345
-11.4617 74.1541 -1.1998 -179.220789 -75.433488 -178.933266 -1.376158 -1.977604 -82.252238 11.524933 -5.351408 80.019705 -11.825916 17.936288 -100.943637 27.050345 6.394735 63.594084 0.000216 0.0 0.003395 0.000216 0.0 0.003395 -155.809817 -5.555292 162.267061 14.67175 15.894185 -0.111156 -104.59623 -46.4591 -128.688448 24.314588 -44.799706 15.712804 -99.394979 37.100844 57.491545 -2.486027 -19.345772 26.479939 11.981378 -21.346863 -5.061254 -164.15904 -21.039858 110.331395 -125.643879 49.839578 115.273473 -16.093961 39.928622 13.157201 -75.672852 -72.115911 -92.829011 14.734711 1.749878 -4.433939 12.253003 41.424902 10.279472 -85.713584 -53.659716 -84.494871 -0.118295 -0.714061 0.15765 15.320557 1.507924 9.789787 1.540932 1.501696 -26.594011 5.345443 32.319401 -2.703206 -9.079524 -9.071685 0.68415 88.474763 26.323166 -78.562765 4.707297 7.223943 -2.854284 173.522736 -28.467886 -108.177972 -173.123875 -66.297878 -137.613859 -179.841917 -48.676487 -141.055652 8e-05 0.063707 -0.021364 -10.311837 0.235286 0.03838 157.018431 56.120514 150.396778 -33.318452 74.772539 -0.340604 -179.995354 75.749853 -0.004793 154.829033 22.204188 9.582868 30.431442 78.79524 -106.425104 -128.083867 -65.816944 -33.559449 0.001054 9.9e-05 -0.000527 15.325221 -19.843576 5.606787 -41.284713 46.431297 14.850172 24.763139 -12.035317 50.879597
-11.405 74.0273 -1.3977 -179.519073 -75.926464 -178.560918 -4.150309 -4.608724 -180.0 1.366267 9.210977 176.686806 -9.869019 7.330892 -36.390021 9.743407 -13.485339 1.544867 0.000286 -0.0 -0.003801 0.00184 -0.0 -0.000683 -143.620286 38.233105 148.079914 6.088767 14.006617 -1.516267 -178.893567 -35.718719 -157.31716 -8.257655 35.67021 2.673691 -164.697794 -2.371995 89.586268 109.957595 -59.644813 79.043263 -140.763206 1.380942 116.229713 -165.034215 -19.051846 119.044898 -151.476594 17.841944 137.539446 -88.591814 63.718735 80.399479 -72.352023 72.973655 90.218712 -158.668708 -28.243358 -179.832485 3.309573 9.334045 3.012567 -1.002578 -8.506185 -2.879634 6.042614 25.599169 -7.234155 -135.000831 69.848263 134.912046 3.72223 34.763318 55.308864 -149.546478 -44.801666 -133.807116 -71.83173 -48.264001 -25.79062 158.011801 -37.373968 -131.75912 150.567204 -15.701393 -120.869975 169.710166 -31.632377 -118.348321 169.088947 -33.247518 -145.37484 168.237107 -19.489941 -143.905348 0.008703 -0.831348 0.261293 -7.516326 26.54704 -4.023239 3.809709 -9.064301 3.563377 159.354645 55.585614 150.065274 -179.998809 75.748611 -0.001051 155.643417 23.279467 -0.0 25.848874 87.49841 175.541303 -174.426028 6.47919 -132.183502 -0.0 -0.00181 -0.000516 15.461217 -20.116703 5.728544 -50.954686 58.5258 -157.616548 134.89508 59.828652 119.56265
